<?xml version="1.0" encoding="UTF-8"?>
<svg version="1.1" xmlns="http://www.w3.org/2000/svg" width="1200" height="1201">
<path d="M0 0 C2.25212738 -0.00693325 4.50418832 -0.01858264 6.75629044 -0.03116226 C34.22666326 -0.16340951 61.48430707 1.55643424 88.67605972 5.61791611 C89.37339218 5.72018509 90.07072464 5.82245407 90.78918839 5.92782211 C163.68102128 16.66940327 235.36937586 40.37023978 299.23855972 77.36791611 C300.20986832 77.9276915 301.18117691 78.48746689 302.1819191 79.06420517 C330.46078974 95.4508489 357.33643926 114.09145898 382.50613785 134.93969345 C384.98166849 136.98054101 387.48854187 138.98218746 389.98855972 140.99291611 C394.90557767 145.01525861 399.57241762 149.26630682 404.21902847 153.59447861 C406.32965781 155.55773233 408.49488381 157.43556842 410.69168472 159.30150986 C416.68550934 164.52576577 422.23753577 170.21815722 427.84769058 175.84667587 C429.79652842 177.80087234 431.75065244 179.74966758 433.7053566 181.69799423 C439.7630923 187.75249231 445.71199206 193.81779672 451.23855972 200.36791611 C452.69301489 201.97559983 454.15076867 203.58031325 455.61355972 205.18041611 C506.51520834 261.72829802 545.36517995 330.66813311 570.23855972 402.36791611 C570.65202652 403.55900986 571.06549332 404.75010361 571.49148941 405.97729111 C584.11789087 442.77922372 592.67046812 480.65135435 597.98855972 519.18041611 C598.08979141 519.90268387 598.1910231 520.62495163 598.29532242 521.36910629 C601.75023533 546.31099667 602.61675398 571.17992609 602.55661774 596.32061768 C602.55097809 598.71507713 602.54815708 601.10952951 602.54553604 603.50399399 C602.5099438 625.87031541 602.29033783 648.13427983 599.49179459 670.35613632 C599.22676685 672.46160252 598.97235637 674.56819987 598.71854019 676.67504501 C590.4256357 744.54143874 570.98123439 809.3238061 540.23855972 870.36791611 C539.7297023 871.38675888 539.22084488 872.40560165 538.69656754 873.45531845 C528.81032707 893.17892213 517.59759409 912.09485251 505.23855972 930.36791611 C504.75354996 931.08938828 504.26854019 931.81086044 503.76883316 932.5541954 C490.82615546 951.76095355 476.72631106 970.15179606 461.64334488 987.7248497 C460.2225679 989.38662048 458.81353219 991.05775589 457.40652847 992.73119736 C445.70144081 1006.60675175 433.11283054 1019.58263287 420.30105972 1032.43041611 C419.76276535 1032.97138931 419.22447098 1033.51236252 418.66986465 1034.06972885 C412.70548371 1040.0566345 406.66992834 1045.87865557 400.23855972 1051.36791611 C398.69374712 1052.78115161 397.15160648 1054.1973202 395.61355972 1055.61791611 C390.57523692 1060.16394477 385.29389304 1064.33103363 379.93387222 1068.48510361 C377.4666798 1070.39910217 375.02630077 1072.34058814 372.60574722 1074.31322861 C363.44203263 1081.77746844 353.99190222 1088.69468494 344.23855972 1095.36791611 C343.05181656 1096.18365097 343.05181656 1096.18365097 341.84109879 1097.01586533 C264.8603805 1149.75176665 176.17710082 1184.03821543 41.23855972 1200.36791611 C40.22471207 1200.43994247 39.21086441 1200.51196884 38.1662941 1200.58617783 C-36.89385224 1205.59994026 -112.15346416 1194.71215828 -395.24190903 1051.48119736 C-406.51652565 1041.56141644 -417.19407495 1031.03048585 -427.82394028 1020.43041611 C-428.36491348 1019.89212173 -428.90588669 1019.35382736 -429.46325302 1018.79922104 C-435.44909554 1012.83589922 -441.29287513 1006.81574207 -446.76144028 1000.36791611 C-447.78302531 999.199627 -448.80644622 998.03294052 -449.83175278 996.86791611 C-479.98091327 962.39217753 -505.7492431 924.71600758 -527.60860825 884.48119736 C-528.69008443 882.49872004 -529.78846977 880.52660242 -530.89034653 878.55541611 C-564.37410654 817.8864377 -584.35355508 748.43532939 -593.51144028 680.05541611 C-593.61267197 679.30923019 -593.71390366 678.56304428 -593.81820297 677.79424667 C-597.22226305 652.3930464 -598.13932059 627.08454742 -598.07394028 601.49291611 C-598.07171742 599.95349763 -598.06954093 598.41407909 -598.06740952 596.87466049 C-598.02466484 574.58630121 -597.66195028 552.49566228 -594.76144028 530.36791611 C-594.61578629 529.22292648 -594.61578629 529.22292648 -594.46718979 528.05480576 C-585.44911119 457.20128396 -564.73550376 390.16181183 -532.76144028 326.36791611 C-532.28497055 325.41239853 -531.80850082 324.45688095 -531.31759262 323.47240829 C-507.41375214 275.8023529 -475.39817688 231.89502966 -439.15450668 192.87426376 C-437.72754399 191.33126344 -436.31178212 189.77860945 -434.89815903 188.22338486 C-425.69700472 178.12571568 -416.31181376 168.03073213 -405.87081528 159.19604111 C-403.57515991 157.20647312 -401.35857824 155.14574739 -399.13936996 153.07177353 C-393.82136755 148.10477156 -388.42563449 143.31779369 -382.74581528 138.76244736 C-380.53116485 136.98550925 -378.33651647 135.19295809 -376.15206528 133.37963486 C-366.33097094 125.25561773 -356.18579754 117.69827535 -345.76144028 110.36791611 C-345.10208481 109.90175888 -344.44272934 109.43560165 -343.7633934 108.95531845 C-266.1484035 54.21114156 -174.945971 17.47074411 -69.81429672 3.61791611 C-67.8626861 3.38024598 -65.9130566 3.12647129 -63.96358871 2.87182236 C-42.7100856 0.16408466 -21.39121571 0.0552011 0 0 Z " fill="#5B2C91" transform="translate(597.7614402770996,-0.3679161071777344)"/>
<path d="M0 0 C0.88026706 -0.00226556 1.76053412 -0.00453111 2.66747594 -0.00686532 C5.60509267 -0.01317475 8.5426629 -0.01237792 11.48028564 -0.0115509 C13.59152282 -0.01454432 15.70275945 -0.01794727 17.81399536 -0.02172852 C23.54141243 -0.03055456 29.26881455 -0.03290606 34.99623775 -0.0335443 C38.57721804 -0.03425564 42.15819454 -0.03639157 45.73917389 -0.03904152 C58.23979432 -0.04829061 70.74040409 -0.05237699 83.24102783 -0.05158997 C94.88062531 -0.05098942 106.5201764 -0.06153784 118.15976214 -0.07733363 C128.16339166 -0.09042396 138.16700604 -0.09577323 148.17064404 -0.09513456 C154.14066273 -0.09487999 160.1106402 -0.09770827 166.08065033 -0.10831261 C171.69819301 -0.11801859 177.31565527 -0.11805561 182.93320084 -0.11079597 C184.98943576 -0.10975321 187.04567576 -0.11209461 189.10190201 -0.11815643 C209.12275155 -0.17333347 209.12275155 -0.17333347 218.03204346 2.13371277 C218.69501812 2.30385297 219.35799278 2.47399317 220.04105759 2.64928913 C244.25045857 9.40682901 265.52621068 25.56881394 278.05938721 47.38273621 C287.90201093 65.10143533 290.18312828 81.92187489 290.23516846 101.80949402 C290.23799583 102.54429678 290.24082321 103.27909954 290.24373627 104.03616905 C290.2586143 107.91284405 290.26791971 111.78948281 290.27227783 115.66618347 C290.27779513 119.65856288 290.30192324 123.65060687 290.33024979 127.64288044 C290.34887808 130.72870877 290.35408151 133.8144555 290.35561371 136.90033531 C290.3586323 138.37270663 290.36663399 139.84507679 290.37979889 141.31739235 C290.39689005 143.3727214 290.39497415 145.42721809 290.38848877 147.48258972 C290.3921344 148.64933731 290.39578003 149.8160849 290.39953613 151.01818848 C289.84285175 155.7376396 288.01327011 158.25060878 284.53204346 161.38371277 C280.8413847 163.9671739 278.11838857 164.25849944 273.72781086 164.2567606 C272.62108471 164.25875165 271.51435856 164.26074269 270.37409526 164.26279408 C269.15329412 164.25988124 267.93249299 164.25696839 266.67469788 164.25396729 C265.38173206 164.25482171 264.08876624 164.25567613 262.75661963 164.25655645 C259.16048923 164.25879823 255.56438846 164.25478444 251.96826184 164.24977839 C248.09302274 164.24546955 244.21778538 164.24692062 240.34254456 164.24768066 C233.62600621 164.24820562 226.90947757 164.24506174 220.19294167 164.23944283 C210.4818967 164.23132404 200.77085644 164.22871222 191.05980846 164.22745483 C175.30518947 164.22526491 159.55057565 164.21860644 143.79595947 164.20915222 C128.48964463 164.19997656 113.18333119 164.19289648 97.87701416 164.18864441 C96.93391173 164.18838169 95.9908093 164.18811896 95.019128 164.18784828 C90.2879734 164.18654326 85.55681878 164.18527955 80.82566416 164.18403637 C41.56112031 164.17366562 2.29658222 164.15604892 -36.96795654 164.13371277 C-36.8328155 166.8320038 -36.69125967 169.52970825 -36.54608154 172.22746277 C-36.50885986 172.98382019 -36.47163818 173.74017761 -36.43328857 174.51945496 C-35.74890647 186.94568683 -32.55930242 198.66103427 -23.25701904 207.43058777 C-13.8442162 214.43397009 -4.33268196 217.28372082 7.29682922 217.28088379 C8.11357744 217.28456048 8.93032566 217.28823717 9.77182382 217.29202527 C12.50057863 217.30301225 15.22929529 217.30689746 17.95806885 217.31071472 C19.91813273 217.31698318 21.87819542 217.32363032 23.83825684 217.33062744 C30.26872944 217.35162635 36.69920217 217.36202659 43.12969971 217.37199402 C45.34769643 217.37604326 47.56569303 217.38016024 49.7836895 217.3843441 C60.20665764 217.40338736 70.62961874 217.41761968 81.05260092 217.42595607 C93.06385164 217.43572269 105.07491779 217.46203095 117.0861035 217.50245696 C126.38316756 217.53266877 135.68017887 217.54742979 144.97729105 217.55073708 C150.52379871 217.55308193 156.07010901 217.56196874 161.6165638 217.58719826 C166.83937617 217.6105724 172.06186251 217.61467473 177.28471375 217.60443687 C179.19337489 217.60394366 181.10205261 217.61020031 183.01066399 217.62399292 C195.79758498 217.71116988 208.50538218 217.50240643 219.03204346 209.19621277 C219.93052002 208.50656433 220.82899658 207.81691589 221.75469971 207.10636902 C224.20234138 205.10163845 224.20234138 205.10163845 226.46954346 202.13371277 C230.77118199 198.77633635 235.78557295 199.66105777 241.03204346 200.13371277 C242.01430908 200.30386902 242.99657471 200.47402527 244.00860596 200.64933777 C251.67989689 201.87833012 259.39195148 201.24499887 267.03204346 200.13371277 C277.64083917 199.25083313 277.64083917 199.25083313 282.28204346 202.19621277 C284.49735805 205.91477655 284.39902597 207.83603807 284.03204346 212.13371277 C283.14695268 214.84302298 281.92187415 217.30329732 280.59454346 219.82121277 C280.23908447 220.51384216 279.88362549 221.20647156 279.51739502 221.92008972 C276.01871929 228.52996817 271.75567283 234.33572409 267.03204346 240.13371277 C266.35915283 240.99867371 265.68626221 241.86363464 264.99298096 242.75480652 C250.352465 260.51591053 225.92825096 270.50273539 203.48268962 272.9208492 C199.72525807 273.24722038 195.98871437 273.28179077 192.21908569 273.28088379 C191.37950628 273.28456048 190.53992687 273.28823717 189.67490566 273.29202527 C186.88655585 273.30295976 184.09824342 273.3068884 181.30987549 273.31071472 C179.29999171 273.31698723 177.29010907 273.32363472 175.28022766 273.33062744 C168.70011184 273.35158077 162.11999602 273.36202332 155.53985596 273.37199402 C153.26533878 273.37604517 150.99082172 273.3801622 148.71630478 273.3843441 C138.02423074 273.4033785 127.33216351 273.41761184 116.6400758 273.42595607 C104.3419645 273.43571486 92.04403383 273.46200642 79.7459861 273.50245696 C70.21182713 273.53272868 60.67771961 273.54743548 51.14351356 273.55073708 C45.46272166 273.55307537 39.78212309 273.56187535 34.10138321 273.58719826 C28.74801154 273.61067763 23.39495782 273.61463329 18.04154778 273.60443687 C16.09186551 273.60394616 14.14216651 273.61012696 12.19253349 273.62399292 C-6.91075161 273.75210232 -23.85678406 270.82106822 -40.96795654 262.13371277 C-42.02498779 261.61035339 -43.08201904 261.08699402 -44.17108154 260.54777527 C-52.61695477 256.01530403 -59.2598623 249.87855111 -65.96795654 243.13371277 C-66.73237061 242.36929871 -67.49678467 241.60488464 -68.28436279 240.81730652 C-88.62117878 219.20695216 -92.6218116 191.71834443 -92.49920654 163.37980652 C-92.50191082 161.14079623 -92.50580095 158.9017871 -92.51080322 156.66278076 C-92.51665306 152.00266684 -92.50828169 147.34286255 -92.48944092 142.68278503 C-92.4666412 136.76035406 -92.47981057 130.83864812 -92.50373077 124.91624355 C-92.51830039 120.30291444 -92.51353224 115.68975253 -92.5032196 111.07641792 C-92.50058374 108.89470899 -92.50370906 106.71298402 -92.51313782 104.53129387 C-92.61695513 73.77614369 -84.50552579 48.26734345 -62.66326904 25.75871277 C-45.6145893 9.6602873 -23.54158653 -0.04486675 0 0 Z " fill="#FCFCFC" transform="translate(709.9679565429688,463.8662872314453)"/>
<path d="M0 0 C0.79853394 -0.0038269 1.59706787 -0.00765381 2.4197998 -0.01159668 C4.10068022 -0.01430711 5.78160343 -0.00700688 7.46240234 0.00976562 C10.02407546 0.03119 12.58294456 0.00993679 15.14453125 -0.015625 C16.78386031 -0.01298157 18.42318763 -0.00785626 20.0625 0 C20.82203979 -0.00809692 21.58157959 -0.01619385 22.36413574 -0.02453613 C27.4846547 0.06501644 30.59859066 0.97423042 34.53125 4.53125 C37.13169125 9.54198513 37.96636395 13.64033192 37.90979004 19.29782104 C37.91432017 20.04882556 37.9188503 20.79983008 37.9235177 21.57359231 C37.93508483 24.07381806 37.92551795 26.57350292 37.91601562 29.07373047 C37.9201234 30.87294865 37.92558549 32.67216416 37.93229675 34.47137451 C37.94400358 38.33839995 37.94651255 42.20528274 37.94194031 46.07232285 C37.93512 52.19152838 37.95101726 58.31054688 37.97033691 64.42971802 C38.00816894 77.42188529 38.02098678 90.4140361 38.03125 103.40625 C38.04232966 117.42657593 38.05772446 131.44681545 38.10196257 145.46708214 C38.12028641 151.5453049 38.12422268 157.62331317 38.11702728 163.70155692 C38.11550175 167.48890612 38.12631256 171.27614874 38.14040565 175.06346893 C38.14439661 176.81415275 38.14330333 178.56485702 38.13663292 180.31553268 C38.0590318 196.47212469 38.0590318 196.47212469 45.53125 210.53125 C51.72751431 215.30781349 57.94082588 217.76577252 65.82104492 217.82177734 C67.0463945 217.83453705 68.27174408 217.84729675 69.53422546 217.86044312 C71.50308464 217.86378159 71.50308464 217.86378159 73.51171875 217.8671875 C74.88926833 217.8736255 76.26681659 217.88035459 77.6443634 217.88735962 C80.52832197 217.89930608 83.41216103 217.9030434 86.29614258 217.90185547 C89.96312939 217.90165295 93.62933535 217.92889595 97.29613781 217.96339989 C100.14204818 217.9858189 102.98777547 217.9896884 105.83376503 217.98863602 C107.83374927 217.99209587 109.83367637 218.0136699 111.83354187 218.03573608 C120.92372315 217.99066818 129.51545785 216.84547165 136.96875 211.21875 C143.90336311 203.94586308 145.84984431 195.52260851 145.7828064 185.62423706 C145.78577654 184.87026142 145.78874667 184.11628578 145.79180682 183.3394624 C145.79939131 180.83544114 145.79297591 178.33165831 145.78662109 175.82763672 C145.78937351 174.02340538 145.79305493 172.21917525 145.79759216 170.41494751 C145.80568199 166.54086543 145.80787826 162.666841 145.80564499 158.79275131 C145.80280546 152.66591448 145.81718649 146.53919234 145.83462524 140.41238403 C145.88159512 122.99417831 145.90560114 105.57598112 145.91210938 88.15771484 C145.91585878 78.52924176 145.93387444 68.90089918 145.96720374 59.27248204 C145.9874227 53.18251168 145.98978614 47.09287775 145.97892356 41.00288749 C145.9763175 37.21564751 145.99031457 33.42860377 146.00900459 29.64141464 C146.01432885 27.88624791 146.01282578 26.1310451 146.00396919 24.37589264 C145.99284644 21.97822414 146.00627971 19.58188316 146.02572632 17.18429565 C146.01660166 16.49129517 146.007477 15.79829469 145.99807584 15.0842942 C146.08984079 9.26300289 148.37673463 5.83438408 152.26196289 1.68115234 C155.68844473 -0.05512839 159.08470489 0.10331208 162.83984375 0.1328125 C163.64357925 0.12994232 164.44731476 0.12707214 165.27540588 0.12411499 C166.97242946 0.12207687 168.66947666 0.12758915 170.36645508 0.14013672 C172.95643001 0.15617372 175.54483956 0.14029115 178.13476562 0.12109375 C179.78646176 0.12307664 181.43815693 0.12692126 183.08984375 0.1328125 C184.24630653 0.12370346 184.24630653 0.12370346 185.4261322 0.1144104 C189.98545264 0.17367686 192.89579975 0.73798088 196.53125 3.53125 C201.64629861 8.93046798 201.68026485 13.90861 201.66928101 21.06404114 C201.67210229 21.81404237 201.67492357 22.5640436 201.67783034 23.33677214 C201.68615128 25.84537491 201.68751243 28.3539334 201.68896484 30.86254883 C201.69363489 32.66309228 201.69877877 34.46363456 201.70436096 36.26417542 C201.71563005 40.13992514 201.72406995 44.01566724 201.73048019 47.89142799 C201.74117193 54.02275572 201.76141972 60.1540285 201.78359985 66.2853241 C201.84548536 83.71989425 201.8995346 101.15446096 201.93261719 118.58911133 C201.95097094 128.21940425 201.9799149 137.84960489 202.0206219 147.47982997 C202.04167612 152.57397213 202.05714697 157.66799809 202.05942917 162.76218605 C202.06157891 167.5548926 202.07748167 172.34735707 202.10381889 177.13998985 C202.11100041 178.8959202 202.11311843 180.65187992 202.10971642 182.40782166 C202.10580459 184.81133478 202.12033063 187.21408123 202.13925171 189.61750793 C202.13095717 190.65133967 202.13095717 190.65133967 202.12249506 191.70605689 C202.22388558 199.2048421 204.73759623 205.47889252 209.78515625 210.9921875 C215.54204234 216.06648978 222.10020815 217.63976388 229.59399414 217.70825195 C230.81949478 217.72108719 232.04499542 217.73392242 233.30763245 217.74714661 C234.64388623 217.75531853 235.98014463 217.76276139 237.31640625 217.76953125 C237.99405973 217.77360678 238.67171322 217.7776823 239.36990166 217.78188133 C242.96168584 217.80271532 246.55343221 217.81702458 250.14526367 217.82641602 C253.827956 217.83743296 257.51003618 217.87178462 261.19251347 217.91158772 C264.04698183 217.93793274 266.90130879 217.94612385 269.75588799 217.94969749 C271.76476073 217.95684743 273.7735361 217.98321366 275.78224182 218.01008606 C284.9651639 217.98855192 292.44094705 216.51903652 300.40625 211.84375 C306.66960561 205.02774536 308.68509158 198.129701 308.66255188 189.08074951 C308.66466759 188.32751915 308.66678331 187.57428879 308.66896313 186.79823327 C308.67495753 184.27270081 308.67396338 181.7472184 308.6730957 179.22167969 C308.67612759 177.41143204 308.67964913 175.60118515 308.68362427 173.79093933 C308.69151169 169.89116074 308.69665761 165.99139129 308.69991493 162.09160614 C308.70582683 155.92255354 308.72236915 149.75355858 308.74125671 143.58453369 C308.74759408 141.47211841 308.75391971 139.3597031 308.76023388 137.24728775 C308.76339969 136.18938176 308.7665655 135.13147576 308.76982725 134.04151201 C308.81189529 119.67954036 308.84487747 105.31759557 308.85717773 90.95556641 C308.86556003 81.267764 308.88805695 71.58010433 308.9265334 61.89237332 C308.94628803 56.76688298 308.95870056 51.64160598 308.95369911 46.51607513 C308.94905006 41.6929565 308.96287228 36.87024213 308.99071121 32.04720497 C308.99761857 30.27998748 308.99775445 28.51272815 308.99051094 26.74551201 C308.92921452 10.10661049 308.92921452 10.10661049 313.53125 3.53125 C317.53432745 -0.01538621 321.77775908 0.0779833 326.90234375 0.09765625 C328.10226707 0.08979347 328.10226707 0.08979347 329.32643127 0.08177185 C331.01326338 0.07536703 332.70014023 0.07666869 334.38696289 0.08520508 C336.95735823 0.0937123 339.52552722 0.06493977 342.09570312 0.03320312 C343.73958267 0.03159074 345.38346613 0.03216935 347.02734375 0.03515625 C348.17135902 0.01830528 348.17135902 0.01830528 349.33848572 0.00111389 C354.48379339 0.06776601 357.54034435 1.00917213 361.53125 4.53125 C364.38941723 9.1539815 364.96370925 13.06893237 364.91893005 18.38948059 C364.92700836 19.54911624 364.92700836 19.54911624 364.93524987 20.73217887 C364.94951622 23.31355956 364.94242882 25.89442646 364.93530273 28.47583008 C364.94100746 30.33088594 364.94797212 32.18593829 364.95610046 34.04098511 C364.97404795 39.07678521 364.97285898 44.11241117 364.96715808 49.14823365 C364.96406465 53.36206171 364.9701613 57.5758564 364.97619683 61.78967971 C364.99024932 71.74449897 364.98867828 81.69923246 364.97729492 91.65405273 C364.96584794 101.88996984 364.97983001 112.12562389 365.0066914 122.36150628 C365.02893622 131.17118056 365.03546505 139.98077283 365.02961498 148.79047316 C365.02626089 154.04198252 365.02855511 159.29332384 365.04586601 164.54480934 C365.06147045 169.49517387 365.05723176 174.44515392 365.03856087 179.395504 C365.03491017 181.19926956 365.03787885 183.00306445 365.04844666 184.80680275 C365.12657299 199.26098318 363.88336984 213.97526999 356.78125 226.90625 C356.43690918 227.55996582 356.09256836 228.21368164 355.73779297 228.88720703 C345.35582124 248.10731021 329.38787145 262.66019702 308.53125 269.53125 C296.47567548 272.8714441 285.07491297 273.7008112 272.62109375 273.734375 C271.90797091 273.73720238 271.19484806 273.74002975 270.46011543 273.74294281 C266.68214686 273.75786881 262.9042158 273.76713845 259.1262207 273.77148438 C255.26928053 273.77694345 251.41269791 273.80093586 247.5558691 273.82945633 C244.55026828 273.84829495 241.54474974 273.85329954 238.53909492 273.85482025 C237.11964539 273.85780237 235.70019567 273.86567558 234.28080559 273.87900543 C214.5908431 274.05064846 193.11784953 269.85530483 178 256.25390625 C175.70460508 254.30538782 175.70460508 254.30538782 173.12890625 254.515625 C169.75745171 255.83378768 166.92655597 257.73470804 163.96875 259.78125 C141.98083528 274.32599724 118.58024387 274.16015755 93.19842529 273.98077393 C89.97226174 273.96472579 86.74639259 273.97473396 83.52022171 273.98489285 C80.36793778 273.99191124 77.2158228 273.98399288 74.06356049 273.97163582 C72.57911582 273.96718772 71.0946526 273.96672481 69.6102066 273.97070122 C45.17533456 274.00556641 24.01907669 266.45653093 6.31640625 249.3359375 C-12.50842563 230.37909417 -17.78355122 207.83720815 -17.7434082 181.9362793 C-17.74776196 180.07249244 -17.75294731 178.20870737 -17.75889587 176.34492493 C-17.77221903 171.31225572 -17.77287252 166.27966191 -17.77033257 161.24697852 C-17.7692593 157.03932529 -17.77415481 152.83168709 -17.778938 148.62403709 C-17.7900079 138.70076251 -17.79048338 128.7775258 -17.78442383 118.85424805 C-17.77837188 108.62202976 -17.79073177 98.38994855 -17.8119939 88.15775365 C-17.82960191 79.36004978 -17.83561291 70.5623896 -17.83235615 61.76466876 C-17.83054346 56.5152871 -17.83317915 51.26600347 -17.84707069 46.0166378 C-17.85963299 41.08600027 -17.85772009 36.15557734 -17.84465981 31.22494316 C-17.84229181 29.41655149 -17.8450367 27.60814477 -17.85328293 25.79977036 C-17.86373223 23.33022782 -17.85566496 20.86140803 -17.8429718 18.39189148 C-17.85034609 17.67759167 -17.85772037 16.96329186 -17.86531812 16.2273466 C-17.81535117 11.60261306 -16.89933684 8.45965552 -14.46875 4.53125 C-9.75075192 0.37483582 -5.9988041 -0.06394907 0 0 Z " fill="#FCFCFC" transform="translate(217.46875,463.46875)"/>
<path d="M0 0 C1.22996602 -0.00551503 1.22996602 -0.00551503 2.48477983 -0.01114148 C5.23046019 -0.02214807 7.97610267 -0.02601705 10.72180176 -0.02983093 C12.69157022 -0.03609798 14.66133751 -0.042745 16.63110352 -0.04974365 C23.09947897 -0.07076184 29.56785459 -0.08114558 36.03625488 -0.09111023 C38.26632194 -0.09515895 40.49638888 -0.09927591 42.72645569 -0.10346031 C53.20709235 -0.12250892 63.68772199 -0.13673932 74.16837263 -0.14507228 C86.24868356 -0.15483666 98.32881088 -0.1811368 110.40905714 -0.22157317 C119.75705603 -0.251785 129.10500244 -0.26654606 138.45304918 -0.26985329 C144.0308704 -0.27219843 149.60849539 -0.28108883 155.18626404 -0.30631447 C160.43943131 -0.32968815 165.69227444 -0.33379111 170.94548035 -0.32355309 C172.86542848 -0.32305983 174.78539308 -0.32931756 176.70529175 -0.34310913 C192.56566512 -0.45059593 205.49974961 1.0449837 217.81750488 12.14717102 C226.67958138 21.67390325 230.20460543 32.75770967 230.00500488 45.58467102 C230.00436035 46.39871399 230.00371582 47.21275696 230.00305176 48.0514679 C229.9583531 54.00632281 229.9583531 54.00632281 228.81750488 55.14717102 C227.369327 55.24472954 225.91640315 55.27272559 224.46494293 55.27301216 C223.51956838 55.27561991 222.57419383 55.27822766 221.60017157 55.28091443 C220.54931954 55.2786837 219.49846751 55.27645298 218.41577148 55.27415466 C217.30897994 55.27571465 216.20218839 55.27727464 215.0618577 55.27888191 C211.32219042 55.28289713 207.58256315 55.27970025 203.84289551 55.27656555 C201.17445251 55.27791936 198.50601235 55.27966276 195.83757019 55.28187561 C189.32352092 55.28633402 182.80948313 55.28535653 176.2954334 55.28246297 C171.00370207 55.28020921 165.71197398 55.27989629 160.42024231 55.28098679 C159.29269428 55.28121664 159.29269428 55.28121664 158.14236751 55.28145113 C156.61554778 55.28177084 155.08872804 55.28209505 153.5619083 55.28242372 C139.22789809 55.28527872 124.89389425 55.28199118 110.55988508 55.27662335 C98.24715489 55.2721553 85.93443412 55.27293122 73.6217041 55.27754211 C59.34075245 55.28288753 45.0598064 55.28500403 30.77885389 55.28192985 C29.25749175 55.28161128 27.7361296 55.28129691 26.21476746 55.28098679 C25.46612927 55.28083251 24.71749109 55.28067823 23.9461669 55.28051928 C18.65769816 55.27965403 13.36923296 55.28111719 8.08076477 55.28346634 C1.64033186 55.28626417 -4.80008885 55.28552644 -11.24052036 55.2801856 C-14.52969204 55.27754835 -17.81883902 55.27707767 -21.10801125 55.27983475 C-24.66561545 55.2825431 -28.22316129 55.279169 -31.78076172 55.27415466 C-33.35703976 55.27750075 -33.35703976 55.27750075 -34.9651618 55.28091443 C-35.91053635 55.27830668 -36.8559109 55.27569893 -37.82993317 55.27301216 C-38.65224505 55.27284981 -39.47455693 55.27268746 -40.32178736 55.27252018 C-42.18249512 55.14717102 -42.18249512 55.14717102 -43.18249512 54.14717102 C-44.56669638 40.97798534 -44.11282438 28.36016086 -36.16296387 17.35029602 C-26.42429732 5.82080638 -15.04300154 -0.00363701 0 0 Z " fill="#5B2D91" transform="translate(716.1824951171875,517.8528289794922)"/>
</svg>
